# xmcd
#
# Track frame offsets: 
#        182
#        15395
#        28795
#        41502
#        56177
#        73075
#        84155
#        96810
#        116000
#        130250
#
# Disc length: 1983 seconds
#
# Revision: 2
# Processed by: cddbd v1.5.2PL0 Copyright (c) Steve Scherf et al.
# Submitted via: ExactAudioCopy v0.99pb5
#
DISCID=7f07bd0a
DTITLE=Kieran Kane - Find My Way Home
DYEAR=1993
DGENRE=Country
TTITLE0=I'm Here To Love You
TTITLE1=Greener Pastures
TTITLE2=I'll Be Turning To You
TTITLE3=If You Only Hurt The Ones You Love (I Must Love You A Lot)
TTITLE4=Return To Me
TTITLE5=That's What You Do (When You Love Somebody)
TTITLE6=Forgive And Forget
TTITLE7=Find My Way Home
TTITLE8=Maybe Next Time
TTITLE9=The Room At The Top Of The Stairs
EXTD=
EXTT0=
EXTT1=
EXTT2=
EXTT3=
EXTT4=
EXTT5=
EXTT6=
EXTT7=
EXTT8=
EXTT9=
PLAYORDER=
